<svg width="560" height="227" viewBox="0 0 560 227" fill="none" xmlns="http://www.w3.org/2000/svg">
<path d="M0 139.5C0 187.815 39.6259 227 88.5 227C127.602 227 160.775 201.931 172.479 167.157C173.298 162.79 170.554 161.375 168.224 161.375H151.748C157.102 185.715 141.305 190.782 141.305 190.782C131.076 194.764 128.354 200.502 128.354 200.502C122.86 208.443 122.978 199.897 122.978 199.897C123.598 191.11 132.101 186.487 132.101 186.487C145.627 178.685 141.718 166.02 139.454 161.025C133.738 160.245 129.83 157.977 127.624 155.469C125.375 174.901 117.786 195.332 83.8832 195.332C74.2146 195.332 66.3234 191.913 60.1284 186.32C57.8937 187.224 48.8889 190.221 36.7054 185.467C36.7054 185.467 34.3306 178.117 45.7766 161.397C43.8149 154.419 42.834 146.938 42.7971 139.5C42.834 132.063 43.8149 124.574 45.7766 117.581C34.3306 100.876 36.7054 93.5406 36.7054 93.5406C48.8963 88.7792 57.9011 91.776 60.1284 92.6802C66.3234 87.0656 74.222 83.675 83.8832 83.675C117.875 83.675 125.36 104.143 127.551 123.626C130.294 120.491 135.678 117.625 143.938 117.625H168.224C170.576 117.625 173.342 116.225 172.472 111.784C160.753 77.0396 127.588 52 88.5 52C39.6259 52 0 91.1781 0 139.5Z" fill="black"/>
<path d="M286.032 163.238H257.44V227H221.552V52.8203H286.271C306.847 52.8203 322.718 57.4061 333.883 66.5776C345.049 75.7492 350.631 88.709 350.631 105.457C350.631 117.34 348.039 127.269 342.855 135.245C337.751 143.14 329.975 149.441 319.528 154.146L357.211 225.325V227H318.69L286.032 163.238ZM257.44 134.168H286.391C295.403 134.168 302.381 131.895 307.326 127.349C312.27 122.723 314.743 116.383 314.743 108.328C314.743 100.114 312.39 93.6536 307.685 88.9482C303.059 84.2428 295.921 81.8901 286.271 81.8901H257.44V134.168Z" fill="black"/>
<path d="M479.912 183.814L519.39 52.8203H559.346L498.694 227H461.25L400.837 52.8203H440.674L479.912 183.814Z" fill="black"/>
</svg>
